<?xml version="1.0" encoding="UTF-8" standalone="no"?>
<!-- Created with Inkscape (http://www.inkscape.org/) -->

<svg
   width="120.80389mm"
   height="69.749985mm"
   viewBox="0 0 120.80389 69.749985"
   version="1.1"
   id="svg5"
   sodipodi:docname="root.svg"
   inkscape:version="1.1.2 (0a00cf5339, 2022-02-04)"
   xmlns:inkscape="http://www.inkscape.org/namespaces/inkscape"
   xmlns:sodipodi="http://sodipodi.sourceforge.net/DTD/sodipodi-0.dtd"
   xmlns="http://www.w3.org/2000/svg"
   xmlns:svg="http://www.w3.org/2000/svg">
  <sodipodi:namedview
     id="namedview7"
     pagecolor="#ffffff"
     bordercolor="#666666"
     borderopacity="1.0"
     inkscape:pageshadow="2"
     inkscape:pageopacity="0"
     inkscape:pagecheckerboard="0"
     inkscape:document-units="mm"
     showgrid="false"
     inkscape:zoom="1.3932941"
     inkscape:cx="219.98228"
     inkscape:cy="251.20325"
     inkscape:window-width="1920"
     inkscape:window-height="1043"
     inkscape:window-x="0"
     inkscape:window-y="0"
     inkscape:window-maximized="1"
     inkscape:current-layer="layer2"
     fit-margin-top="0"
     fit-margin-left="0"
     fit-margin-right="0"
     fit-margin-bottom="0" />
  <defs
     id="defs2" />
  <g
     inkscape:groupmode="layer"
     id="layer2"
     inkscape:label="Calque 2"
     style="display:inline;opacity:1"
     transform="translate(-4.6846664,-6.1112851)">
    <path
       style="fill:#ffffff;fill-opacity:1;stroke:#ffffff;stroke-width:0.264583px;stroke-linecap:butt;stroke-linejoin:miter;stroke-opacity:1"
       d="m 4.8156867,21.046747 c 3.930879,6.440488 5.9340773,10.697388 9.8401883,11.038548 22.700593,10.0724 15.366011,3.56763 21.818205,5.06493 4.781702,-0.20433 10.697663,2.47987 14.345065,-0.6131 1.518925,-4.61236 -0.447468,-9.81761 -1.359696,-14.843541 -1.523894,-1.927228 -4.042346,-2.575513 -6.121234,-3.789053 2.498067,0.727892 4.880462,2.270276 7.495024,2.177891 0.755822,-1.497098 0.401042,-6.063225 0.565243,-9.195204 0.459043,3.667647 0.222302,8.044994 1.377129,11.002941 2.255823,1.033048 3.982092,-1.494439 5.954702,-2.365563 -1.90387,1.699609 -4.198847,3.384495 -5.153943,5.11982 -0.242539,4.875859 2.684803,7.632729 3.523493,11.441339 8.64366,-4.36418 13.30253,-14.079674 19.906624,-21.253708 -3.99598,6.539494 -9.974324,12.103188 -11.987294,19.618808 16.554084,-9.652611 20.191474,-8.81442 30.287204,-13.22163 0.58408,-2.112114 1.73835,0.381796 1.38714,-9.285701 0.15069,-0.732986 -0.61507,-2.0967917 -1.09933,-3.2668337 0.89096,1.30182 1.45747,2.9005017 3.06766,3.5442637 2.599743,-1.547249 4.760043,-4.0046677 7.139343,-6.0084817 l -4.64062,4.6376557 c -5.073713,4.763958 -2.569193,8.194163 -2.569193,8.194163 3.603753,2.119082 12.940213,1.715689 17.752103,-0.313408 1.45629,-0.327523 1.8501,-3.681061 2.65264,-5.870509 -0.45511,2.32245 -0.78276,5.382715 -0.36624,7.125955 1.96706,2.242993 2.68636,1.387514 6.81371,2.878284 -5.52019,-0.42521 -6.54197,-1.061574 -8.90195,-2.045786 -2.45045,-0.842686 -11.71372,1.477796 -16.925483,0.833218 -3.51175,2.905583 -9.56229,3.438425 -13.12816,6.62713 3.88292,3.05402 7.796,2.59507 11.69948,3.25497 7.025263,0.22315 7.918483,-2.418 11.073413,-4.00269 -2.12912,2.06119 -4.05083,3.14046 -6.21589,5.56958 6.20677,-0.45359 11.39039,0.70706 17.44656,0.3039 -10.47375,0.79798 -8.87377,-0.91279 -25.326123,1.77732 -5.69283,0.50943 -1.30071,5.59257 -1.83815,8.44006 -1.34534,-3.34641 -1.94267,-6.56553 -4.38545,-10.0987 -3.8854,-3.97609 -9.46032,-2.72986 -12.25419,-1.48299 -7.424154,3.90111 -13.612324,10.19567 -22.54902,11.16777 2.727946,1.08099 7.033346,0.93648 8.539686,3.31777 3.99695,1.03682 12.659134,-1.22296 19.355994,-1.89502 -6.1247,1.29516 -10.371884,4.7891 -18.374094,3.88549 0.46546,3.07248 3.9197,4.04897 6.188,5.85715 11.366354,3.309594 19.822894,-0.86101 29.732344,-1.29664 -7.25789,1.21788 -7.8894,2.93715 -10.53339,4.504144 1.49713,5.01337 5.06365,6.90974 7.93862,10.27821 -4.81438,-3.48465 -8.58909,-8.05958 -14.52866,-10.36426 -3.20327,0.66073 -6.97152,0.0453 -10.475534,0.0267 2.705704,4.29803 3.651404,7.52096 5.131694,11.07045 -0.20233,3.03801 -2.39439,4.91035 -3.87955,7.19682 1.1045,-2.85728 3.16712,-4.63955 0.88019,-9.05074 -1.962264,-6.36991 -6.790814,-8.55832 -10.342004,-12.564474 -2.00201,3.404774 -2.01212,9.202984 -1.98997,13.795294 -2.97407,-5.24261 -0.0488,-12.481894 -2.4961,-18.197024 -2.26981,-4.53517 -9.58923,-2.06676 -13.416677,-3.68128 -7.568515,-3.21679 -16.499461,-0.90817 -25.195567,0.44804 -6.44921,1.23203 -8.506829,3.25544 -10.8375213,6.36454 -2.050266,1.98379 -2.077599,5.695894 -2.947866,8.687824 1.413611,-13.586484 -0.191055,-27.070274 -2.072555,-40.544642 z"
       id="path2033"
       sodipodi:nodetypes="ccccccccccccccccccccccccccccccccccccccccccccccccccccccccc" />
    <path
       style="opacity:0;fill:#ffffff;fill-opacity:1;stroke:#ffffff;stroke-width:0;stroke-miterlimit:4;stroke-dasharray:none;stroke-opacity:1"
       d="m 102.14835,114.79801 c 0.57139,-1.74836 -0.58109,-6.04469 -2.441633,-9.10217 -0.391612,-0.64355 -2.54191,-2.94606 -4.778438,-5.11669 -3.11952,-3.027607 -4.1476,-3.879229 -4.415062,-3.65726 -0.886471,0.735711 -1.92508,6.19839 -1.980491,10.41665 l -0.02656,2.02122 -0.401923,-1.20851 c -0.287295,-0.86383 -0.433187,-2.80695 -0.511543,-6.8132 -0.204023,-10.431536 -1.016563,-11.54476 -8.771834,-12.017853 -3.298812,-0.201234 -4.586872,-0.403482 -6.643505,-1.043141 -5.717569,-1.778291 -9.135544,-1.776349 -20.141692,0.01143 -5.668084,0.920697 -8.312303,1.581737 -10.24528,2.561248 -2.496011,1.264828 -5.529861,4.517181 -6.56776,7.040788 l -0.630335,1.532657 -0.0064,-6.222807 c -0.007,-6.81736 -0.445579,-13.185179 -1.476616,-21.438452 -0.369043,-2.954115 -0.67261,-5.608544 -0.674595,-5.898734 -0.0019,-0.29019 0.806077,0.797462 1.795693,2.417003 2.242206,3.669448 4.593397,6.127604 6.276319,6.56186 0.654256,0.168822 2.277208,0.776883 3.606559,1.351243 9.446591,4.08151 13.906502,5.234186 16.021079,4.140697 0.929473,-0.48065 2.992099,-0.401913 8.797546,0.33583 3.923028,0.498528 6.19242,0.377309 7.742698,-0.413586 1.635665,-0.834453 1.814473,-1.315545 1.809589,-4.868809 -0.0034,-2.497394 -0.174686,-3.859258 -0.894948,-7.116731 -0.772538,-3.4939 -0.993143,-4.12446 -1.662792,-4.752858 L 75.154342,62.793313 76.51193,62.9541 c 1.469554,0.174046 1.830364,-0.0607 1.838089,-1.195887 0.008,-1.181418 0.423194,-0.578673 0.736331,1.069048 0.364781,1.919476 0.873595,2.457204 2.138023,2.259524 l 0.85607,-0.13384 -0.923208,1.209471 c -0.507767,0.66521 -0.921115,1.472129 -0.918551,1.793153 0.01172,1.464717 0.866857,4.326644 2.119725,7.094061 0.751763,1.660533 1.36684,3.194241 1.36684,3.408238 0,0.790485 0.522277,0.656762 2.168705,-0.555268 2.343375,-1.725096 6.30696,-5.614236 8.759381,-8.594862 1.133628,-1.377791 2.110224,-2.455995 2.17021,-2.396008 0.05999,0.05999 -0.368864,0.813271 -0.953003,1.67396 -1.886532,2.779689 -4.45091,8.40885 -4.024791,8.834972 0.07286,0.07286 1.206175,-0.488836 2.518471,-1.248214 3.143779,-1.819191 9.187088,-4.842695 12.039758,-6.02356 1.25388,-0.519044 4.67043,-1.771695 7.59235,-2.783665 7.77647,-2.693292 8.30588,-2.945154 9.15312,-4.354523 0.66454,-1.105451 0.71952,-1.443038 0.81564,-5.008351 l 0.10307,-3.823002 0.68382,0.537898 c 0.39599,0.311486 0.88971,0.472551 1.17295,0.382654 0.41527,-0.131797 0.36834,0.07437 -0.31075,1.365348 -0.87976,1.672452 -1.06976,3.736853 -0.45564,4.950568 1.02097,2.017747 9.68537,2.638774 15.61661,1.119333 2.61421,-0.6697 3.37032,-1.087265 3.95227,-2.182664 l 0.49713,-0.935755 v 1.480252 c 0,1.663501 0.41136,2.441336 1.70982,3.233102 1.1872,0.723921 0.64747,0.641847 -2.11526,-0.321657 l -2.39932,-0.836763 -5.39981,0.581369 c -2.9699,0.319752 -6.53837,0.58674 -7.92994,0.593307 -2.39161,0.0113 -2.61099,0.06147 -4.00718,0.916734 -0.81238,0.497636 -2.90013,1.452258 -4.63944,2.121381 -1.7393,0.669123 -3.6729,1.472975 -4.29689,1.78634 -1.31468,0.66023 -2.88013,1.788967 -2.88013,2.076661 0,0.10898 0.63668,0.584015 1.41485,1.055632 1.79947,1.090597 4.53219,1.776945 8.83361,2.218651 2.93311,0.301196 3.67107,0.293579 5.37112,-0.05544 1.08396,-0.222539 2.21253,-0.501841 2.50794,-0.620676 0.32969,-0.132625 0.0964,0.243684 -0.60425,0.974453 -0.62775,0.654783 -1.14136,1.260628 -1.14136,1.346319 0,0.08569 1.41999,0.119057 3.15553,0.07414 l 3.15553,-0.08167 -2.78776,0.249142 c -4.06474,0.363268 -12.14403,1.584108 -12.9149,1.951541 -0.96947,0.462089 -1.39023,1.453192 -1.2174,2.867548 l 0.14767,1.208501 -0.7447,-1.750828 c -1.36831,-3.216944 -2.22502,-4.497392 -3.67148,-5.487458 -3.22294,-2.206011 -7.62814,-2.228966 -11.87051,-0.06186 -0.72384,0.369758 -3.491377,2.079189 -6.15008,3.798732 -6.705155,4.336631 -10.858036,6.283851 -14.405273,6.75441 -0.791057,0.104936 -1.28714,0.29682 -1.229649,0.47562 0.05301,0.164846 0.994267,0.517917 2.091698,0.784603 3.922514,0.953207 4.826167,1.286804 5.798733,2.140691 0.980342,0.860714 1.001421,0.865413 3.69384,0.823606 1.489329,-0.02313 4.745045,-0.362675 7.234922,-0.754552 2.489879,-0.391875 4.573109,-0.666446 4.629389,-0.610158 0.0563,0.05629 -1.43706,0.61065 -3.31855,1.231915 -3.725728,1.230236 -7.187266,1.789449 -9.396254,1.517971 -1.662803,-0.204357 -1.783739,0.06696 -0.805669,1.807471 0.886084,1.576814 5.186275,4.359109 7.60376,4.919761 4.782573,1.109152 9.496753,1.00172 17.824123,-0.40621 4.82952,-0.816538 6.07317,-0.903533 4.23256,-0.296076 -0.50808,0.167682 -1.83707,0.94057 -2.95331,1.717529 l -2.02954,1.412657 0.62478,1.53722 c 0.34363,0.84548 0.95162,1.96574 1.3511,2.48949 0.39949,0.52375 0.67579,1.00281 0.61402,1.06458 -0.0618,0.0618 -1.06653,-0.61933 -2.23279,-1.51356 -1.16627,-0.89422 -2.90394,-2.064 -3.8615,-2.5995 l -1.74102,-0.97363 -5.8556,-0.0767 c -3.22058,-0.0422 -5.8556,-0.0391 -5.8556,0.007 0,0.0459 0.655537,1.34277 1.45675,2.88193 0.80121,1.53915 1.95513,4.05427 2.56427,5.58916 1.22766,3.09343 1.23763,3.63034 0.10395,5.60167 -0.71635,1.24564 -1.05211,1.48901 -0.74102,0.53711 z"
       id="path11577" />
    <rect
       style="opacity:0;fill:#ffffff;fill-opacity:1;stroke:#ffffff;stroke-width:0;stroke-miterlimit:4;stroke-dasharray:none;stroke-opacity:1"
       id="rect25654"
       width="126.43032"
       height="74.236649"
       x="29.186386"
       y="47.04567"
       ry="0.63274574" />
    <rect
       style="opacity:0;fill:#ffffff;fill-opacity:1;stroke:#ffffff;stroke-width:0;stroke-miterlimit:4;stroke-dasharray:none;stroke-opacity:1"
       id="rect25656"
       width="126.43031"
       height="74.236649"
       x="29.186386"
       y="47.04567"
       ry="0.63274574" />
  </g>
</svg>
